<svg width="124" height="124" viewBox="0 0 124 124" fill="none" xmlns="http://www.w3.org/2000/svg">
<g filter="url(#filter0_d_30_33780)">
<rect x="2" y="1" width="120" height="120" rx="60" fill="white" shape-rendering="crispEdges"/>
<path d="M88.6039 55.2125C86.0699 43.5623 72.108 36.7114 57.414 39.9065C42.7201 43.1016 32.8656 55.1396 35.3963 66.7864C37.927 78.4333 51.8922 85.2908 66.5829 82.0924C81.2735 78.894 91.1346 66.8726 88.6039 55.2125ZM62.0018 71.7382C59.8791 71.7382 57.8041 71.1084 56.0392 69.9284C54.2743 68.7484 52.8987 67.0712 52.0864 65.109C51.2741 63.1468 51.0616 60.9876 51.4757 58.9044C51.8898 56.8213 52.9119 54.9079 54.4129 53.406C55.9138 51.9042 57.8261 50.8814 59.908 50.4671C61.9898 50.0527 64.1478 50.2654 66.1088 51.0782C68.0699 51.891 69.746 53.2674 70.9253 55.0334C72.1046 56.7993 72.734 58.8756 72.734 60.9995C72.734 62.4097 72.4564 63.8061 71.9171 65.109C71.3778 66.4119 70.5872 67.5957 69.5906 68.5929C68.594 69.5901 67.4109 70.3811 66.1088 70.9207C64.8067 71.4604 63.4111 71.7382 62.0018 71.7382Z" fill="#008C99"/>
<path d="M64.3801 45.9653C61.3325 45.9659 58.3536 46.8708 55.82 48.5654C53.2863 50.26 51.3118 52.6683 50.146 55.4858C48.9802 58.3032 48.6755 61.4033 49.2704 64.394C49.8654 67.3847 51.3333 70.1318 53.4884 72.2878C55.6436 74.4438 58.3893 75.9119 61.3784 76.5066C64.3674 77.1013 67.4656 76.7957 70.2811 75.6286C73.0966 74.4615 75.503 72.4853 77.1961 69.9498C78.8892 67.4142 79.7928 64.4333 79.7928 61.3839C79.7928 59.3589 79.3942 57.3536 78.6196 55.4827C77.8449 53.6118 76.7096 51.9119 75.2783 50.4801C73.8471 49.0483 72.148 47.9127 70.278 47.138C68.4081 46.3633 66.404 45.9648 64.3801 45.9653ZM62.0051 70.3793C60.151 70.3793 58.3386 69.8292 56.797 68.7985C55.2555 67.7678 54.054 66.3029 53.3444 64.589C52.6349 62.875 52.4493 60.9891 52.811 59.1696C53.1727 57.3501 54.0655 55.6787 55.3765 54.3669C56.6875 53.0552 58.3578 52.1618 60.1763 51.7999C61.9947 51.438 63.8795 51.6237 65.5924 52.3337C67.3053 53.0436 68.7694 54.2458 69.7994 55.7883C70.8295 57.3308 71.3793 59.1443 71.3793 60.9995C71.3793 63.4866 70.3921 65.8719 68.6348 67.6308C66.8775 69.3898 64.4907 70.3784 62.0051 70.3793Z" fill="#70CCD3"/>
<rect x="2.5" y="1.5" width="119" height="119" rx="59.5" stroke="#DAE0E6" shape-rendering="crispEdges"/>
</g>
<defs>
<filter id="filter0_d_30_33780" x="0" y="0" width="124" height="124" filterUnits="userSpaceOnUse" color-interpolation-filters="sRGB">
<feFlood flood-opacity="0" result="BackgroundImageFix"/>
<feColorMatrix in="SourceAlpha" type="matrix" values="0 0 0 0 0 0 0 0 0 0 0 0 0 0 0 0 0 0 127 0" result="hardAlpha"/>
<feOffset dy="1"/>
<feGaussianBlur stdDeviation="1"/>
<feComposite in2="hardAlpha" operator="out"/>
<feColorMatrix type="matrix" values="0 0 0 0 0.0627451 0 0 0 0 0.0941176 0 0 0 0 0.156863 0 0 0 0.04 0"/>
<feBlend mode="normal" in2="BackgroundImageFix" result="effect1_dropShadow_30_33780"/>
<feBlend mode="normal" in="SourceGraphic" in2="effect1_dropShadow_30_33780" result="shape"/>
</filter>
</defs>
</svg>
