<svg width="73" height="92" viewBox="0 0 73 92" fill="none" xmlns="http://www.w3.org/2000/svg">
<g filter="url(#filter0_d_30_33796)">
<rect x="2" y="1" width="88" height="88" rx="44" fill="white" shape-rendering="crispEdges"/>
<path fill-rule="evenodd" clip-rule="evenodd" d="M57.8658 46.1395C52.8211 46.1395 48.7316 50.2219 48.7316 55.258C48.7316 60.2938 52.8211 64.3763 57.8658 64.3763C62.9106 64.3763 67 60.2938 67 55.258C67 50.2219 62.9106 46.1395 57.8658 46.1395ZM34.1342 46.1403C29.0896 46.1403 25 50.2219 25 55.258C25 60.2938 29.0896 64.3763 34.1342 64.3763C39.1791 64.3763 43.2689 60.2938 43.2689 55.258C43.2689 50.2219 39.1791 46.1403 34.1342 46.1403ZM55.1341 34.7415C55.1341 39.7777 51.0447 43.8605 46.0001 43.8605C40.9552 43.8605 36.8658 39.7777 36.8658 34.7415C36.8658 29.7063 40.9552 25.6235 46.0001 25.6235C51.0447 25.6235 55.1341 29.7063 55.1341 34.7415Z" fill="#F06A6A"/>
<rect x="2.5" y="1.5" width="87" height="87" rx="43.5" stroke="#DAE0E6" shape-rendering="crispEdges"/>
</g>
<defs>
<filter id="filter0_d_30_33796" x="0" y="0" width="92" height="92" filterUnits="userSpaceOnUse" color-interpolation-filters="sRGB">
<feFlood flood-opacity="0" result="BackgroundImageFix"/>
<feColorMatrix in="SourceAlpha" type="matrix" values="0 0 0 0 0 0 0 0 0 0 0 0 0 0 0 0 0 0 127 0" result="hardAlpha"/>
<feOffset dy="1"/>
<feGaussianBlur stdDeviation="1"/>
<feComposite in2="hardAlpha" operator="out"/>
<feColorMatrix type="matrix" values="0 0 0 0 0.0627451 0 0 0 0 0.0941176 0 0 0 0 0.156863 0 0 0 0.04 0"/>
<feBlend mode="normal" in2="BackgroundImageFix" result="effect1_dropShadow_30_33796"/>
<feBlend mode="normal" in="SourceGraphic" in2="effect1_dropShadow_30_33796" result="shape"/>
</filter>
</defs>
</svg>
