<svg width="22" height="25" viewBox="0 0 22 25" fill="none" xmlns="http://www.w3.org/2000/svg">
<path d="M20.684 19.6383C20.3211 20.4768 19.8915 21.2487 19.3937 21.9583C18.7152 22.9257 18.1597 23.5953 17.7315 23.9671C17.0679 24.5775 16.3568 24.89 15.5953 24.9078C15.0487 24.9078 14.3894 24.7523 13.6221 24.4367C12.8521 24.1227 12.1446 23.9671 11.4977 23.9671C10.8192 23.9671 10.0915 24.1227 9.31315 24.4367C8.53362 24.7523 7.90564 24.9167 7.42551 24.933C6.69531 24.9641 5.96748 24.6426 5.24099 23.9671C4.7773 23.5627 4.19732 22.8694 3.50252 21.8872C2.75707 20.8383 2.1442 19.622 1.66407 18.2354C1.14986 16.7377 0.89209 15.2874 0.89209 13.8833C0.89209 12.2749 1.23963 10.8876 1.93576 9.72517C2.48285 8.79142 3.21068 8.05485 4.12162 7.51412C5.03255 6.9734 6.01681 6.69785 7.07678 6.68022C7.65676 6.68022 8.41733 6.85962 9.36248 7.2122C10.305 7.56597 10.9101 7.74537 11.1755 7.74537C11.3738 7.74537 12.0461 7.5356 13.1858 7.11739C14.2635 6.72955 15.1731 6.56896 15.9183 6.63222C17.9375 6.79518 19.4545 7.59116 20.4633 9.02519C18.6574 10.1194 17.7641 11.6519 17.7819 13.6179C17.7982 15.1493 18.3538 16.4236 19.4456 17.4354C19.9404 17.9051 20.4929 18.268 21.1077 18.5258C20.9744 18.9124 20.8337 19.2828 20.684 19.6383ZM16.0531 1.4152C16.0531 2.61547 15.6146 3.73616 14.7405 4.77346C13.6858 6.00661 12.4099 6.71918 11.0264 6.60674C11.0088 6.46275 10.9986 6.31119 10.9986 6.15194C10.9986 4.99968 11.5002 3.76653 12.391 2.75827C12.8357 2.24776 13.4013 1.82329 14.0872 1.48467C14.7716 1.15111 15.419 0.966648 16.0279 0.935059C16.0457 1.09552 16.0531 1.25598 16.0531 1.41518V1.4152Z" fill="white"/>
</svg>
