<svg width="184" height="46" viewBox="0 0 184 46" fill="none" xmlns="http://www.w3.org/2000/svg">
<path d="M14.752 9.90102L14.752 36.1074L7.94339 32.1764L7.94591 13.8276L14.752 9.90102Z" fill="#2B63D9"/>
<path d="M23.8352 4.65102L27.7633 6.91888L27.7597 39.0783L23.8302 41.3487L20.1349 39.2152L20.1313 6.79946L23.8352 4.65102Z" fill="#2B63D9"/>
<path d="M33.1389 35.9767L33.1461 10.0267L39.722 13.8232L39.7195 32.1721L33.1389 35.9767Z" fill="#2B63D9"/>
<path d="M63.0967 12.7013H66.7856V26.0053C66.7856 27.4636 66.4409 28.7463 65.7515 29.8533C65.0687 30.9603 64.1075 31.8254 62.868 32.4485C61.6284 33.0649 60.18 33.3732 58.5228 33.3732C56.859 33.3732 55.4073 33.0649 54.1677 32.4485C52.9281 31.8254 51.9669 30.9603 51.2842 29.8533C50.6014 28.7463 50.26 27.4636 50.26 26.0053V12.7013H53.9489V25.697C53.9489 26.5455 54.1345 27.3012 54.5057 27.9641C54.8836 28.627 55.4139 29.1473 56.0967 29.5252C56.7794 29.8964 57.5881 30.082 58.5228 30.082C59.4575 30.082 60.2662 29.8964 60.9489 29.5252C61.6383 29.1473 62.1686 28.627 62.5398 27.9641C62.9111 27.3012 63.0967 26.5455 63.0967 25.697V12.7013ZM73.9555 24.1161V33.0649H70.3561V17.7922H73.7964V20.3874H73.9754C74.3267 19.5323 74.8869 18.8528 75.6558 18.349C76.4314 17.8452 77.3892 17.5934 78.5294 17.5934C79.5833 17.5934 80.5014 17.8187 81.2836 18.2695C82.0725 18.7202 82.6823 19.3732 83.1132 20.2283C83.5507 21.0834 83.7661 22.1208 83.7595 23.3405V33.0649H80.1601V23.8973C80.1601 22.8765 79.8949 22.0777 79.3646 21.501C78.8409 20.9243 78.1151 20.636 77.187 20.636C76.5573 20.636 75.9972 20.7752 75.5066 21.0536C75.0227 21.3254 74.6416 21.7198 74.3632 22.2368C74.0914 22.7539 73.9555 23.3803 73.9555 24.1161ZM87.1386 33.0649V17.7922H90.738V33.0649H87.1386ZM88.9482 15.6246C88.3782 15.6246 87.8876 15.4357 87.4766 15.0578C87.0657 14.6734 86.8602 14.2127 86.8602 13.6757C86.8602 13.1322 87.0657 12.6715 87.4766 12.2936C87.8876 11.9092 88.3782 11.7169 88.9482 11.7169C89.5249 11.7169 90.0155 11.9092 90.4198 12.2936C90.8308 12.6715 91.0363 13.1322 91.0363 13.6757C91.0363 14.2127 90.8308 14.6734 90.4198 15.0578C90.0155 15.4357 89.5249 15.6246 88.9482 15.6246ZM100.821 33.3632C99.3298 33.3632 98.0372 33.0351 96.9434 32.3789C95.8497 31.7226 95.0012 30.8045 94.398 29.6246C93.8014 28.4447 93.5031 27.0659 93.5031 25.4882C93.5031 23.9106 93.8014 22.5285 94.398 21.3419C95.0012 20.1554 95.8497 19.234 96.9434 18.5777C98.0372 17.9215 99.3298 17.5934 100.821 17.5934C102.313 17.5934 103.605 17.9215 104.699 18.5777C105.793 19.234 106.638 20.1554 107.235 21.3419C107.838 22.5285 108.139 23.9106 108.139 25.4882C108.139 27.0659 107.838 28.4447 107.235 29.6246C106.638 30.8045 105.793 31.7226 104.699 32.3789C103.605 33.0351 102.313 33.3632 100.821 33.3632ZM100.841 30.4797C101.65 30.4797 102.326 30.2576 102.87 29.8135C103.413 29.3628 103.818 28.7595 104.083 28.0039C104.354 27.2482 104.49 26.4063 104.49 25.4783C104.49 24.5436 104.354 23.6985 104.083 22.9428C103.818 22.1805 103.413 21.5739 102.87 21.1232C102.326 20.6724 101.65 20.447 100.841 20.447C100.013 20.447 99.3232 20.6724 98.773 21.1232C98.2294 21.5739 97.8218 22.1805 97.55 22.9428C97.2848 23.6985 97.1523 24.5436 97.1523 25.4783C97.1523 26.4063 97.2848 27.2482 97.55 28.0039C97.8218 28.7595 98.2294 29.3628 98.773 29.8135C99.3232 30.2576 100.013 30.4797 100.841 30.4797ZM114.514 24.1161V33.0649H110.915V17.7922H114.355V20.3874H114.534C114.885 19.5323 115.445 18.8528 116.214 18.349C116.99 17.8452 117.948 17.5934 119.088 17.5934C120.142 17.5934 121.06 17.8187 121.842 18.2695C122.631 18.7202 123.241 19.3732 123.672 20.2283C124.109 21.0834 124.325 22.1208 124.318 23.3405V33.0649H120.718V23.8973C120.718 22.8765 120.453 22.0777 119.923 21.501C119.399 20.9243 118.674 20.636 117.745 20.636C117.116 20.636 116.556 20.7752 116.065 21.0536C115.581 21.3254 115.2 21.7198 114.922 22.2368C114.65 22.7539 114.514 23.3803 114.514 24.1161Z" fill="#2E343F"/>
<path d="M134.836 33.0649H127.617V12.7013H134.896C136.944 12.7013 138.707 13.109 140.186 13.9243C141.664 14.733 142.801 15.8964 143.596 17.4144C144.398 18.9324 144.799 20.7487 144.799 22.8632C144.799 24.9844 144.398 26.8074 143.596 28.332C142.801 29.8566 141.657 31.0266 140.166 31.8419C138.681 32.6573 136.904 33.0649 134.836 33.0649ZM131.923 29.376H134.657C135.93 29.376 137.001 29.1506 137.869 28.6999C138.744 28.2425 139.4 27.5365 139.838 26.582C140.282 25.6208 140.504 24.3812 140.504 22.8632C140.504 21.3585 140.282 20.1289 139.838 19.1743C139.4 18.2198 138.747 17.5171 137.879 17.0664C137.01 16.6156 135.94 16.3902 134.667 16.3902H131.923V29.376ZM147.709 33.0649V12.7013H161.43V16.251H152.014V21.1033H160.724V24.653H152.014V29.5152H161.47V33.0649H147.709ZM168.252 12.7013L173.174 28.1729H173.363L178.295 12.7013H183.067L176.048 33.0649H170.499L163.469 12.7013H168.252Z" fill="#2B63D9"/>
</svg>
